# Created by FreeCAD <http://www.freecadweb.org>
v -118.342285 0.000000 -5.143323
v -122.739273 0.000000 -3.787460
v -118.342285 -100.000000 -5.143323
v -122.739273 -100.000000 -3.787460
v -127.193985 0.000000 -2.635296
v -127.193985 -100.000000 -2.635296
v -131.696976 0.000000 -1.689272
v -131.696976 -100.000000 -1.689272
v -136.238708 0.000000 -0.951391
v -136.238708 -100.000000 -0.951391
v -140.809586 -100.000000 -0.423214
v -140.809586 0.000000 -0.423214
v -145.399933 0.000000 -0.105859
v -145.399933 -100.000000 -0.105859
v -150.000000 0.000000 0.000000
v -150.000000 -100.000000 -0.000000
v -106.860809 -100.000000 -8.770745
v -106.860809 0.000000 -8.770745
v -95.268463 0.000000 -12.026509
v -95.268463 -100.000000 -12.026509
v -83.577278 0.000000 -14.907238
v -83.577278 -100.000000 -14.907238
v -71.799377 -100.000000 -17.409941
v -71.799377 0.000000 -17.409941
v -59.946980 0.000000 -19.532024
v -59.946980 -100.000000 -19.532024
v -48.032391 -100.000000 -21.271284
v -48.032391 0.000000 -21.271284
v -36.067966 0.000000 -22.625917
v -36.067966 -100.000000 -22.625917
v -24.066120 0.000000 -23.594517
v -24.066120 -100.000000 -23.594517
v -12.039306 0.000000 -24.176079
v -12.039306 -100.000000 -24.176079
v -0.000000 0.000000 -24.370001
v -0.000000 -100.000000 -24.370001
v -150.000000 -95.000000 -4.740163
v -150.000000 -95.000000 -29.370001
v -150.000000 -95.000000 -65.000000
v -150.000000 -100.000000 -70.000000
v -150.000000 -95.000000 -64.370003
v -150.000000 -5.000000 -4.740163
v -150.000000 -5.000000 -29.370001
v -150.000000 0.000000 -70.000000
v -150.000000 -5.000000 -64.370003
v -150.000000 -5.000000 -65.000000
v 0.000000 0.000000 -70.000000
v -150.000000 -100.000000 -0.000000
v -118.342285 -100.000000 -5.143323
v 0.000000 -100.000000 -70.000000
v -0.000000 -100.000000 -24.370001
v -0.000000 -95.000000 -64.370003
v -0.000000 -95.000000 -29.370001
v -0.000000 -95.000000 -65.000000
v -0.000000 -5.000000 -29.370001
v -0.000000 -5.000000 -64.370003
v -0.000000 -5.000000 -65.000000
v -145.572098 -5.000000 -4.843128
v -141.153778 -5.000000 -5.151801
v -136.754578 -5.000000 -5.665513
v -132.384018 -5.000000 -6.383155
v -128.051529 -5.000000 -7.303176
v -123.766495 -5.000000 -8.423586
v -119.538170 -5.000000 -9.741963
v -107.948235 -5.000000 -13.444555
v -96.243942 -5.000000 -16.768007
v -84.437698 -5.000000 -19.708801
v -12.165383 -5.000000 -29.171995
v -24.317879 -5.000000 -28.578190
v -36.444611 -5.000000 -27.589212
v -48.532738 -5.000000 -26.206114
v -60.569450 -5.000000 -24.430355
v -72.542000 -5.000000 -22.263819
v -119.538170 -95.000000 -9.741963
v -123.766495 -95.000000 -8.423586
v -128.051529 -95.000000 -7.303176
v -132.384018 -95.000000 -6.383155
v -136.754578 -95.000000 -5.665513
v -141.153778 -95.000000 -5.151801
v -145.572098 -95.000000 -4.843128
v -107.948235 -95.000000 -13.444555
v -96.243942 -95.000000 -16.768007
v -84.437698 -95.000000 -19.708801
v -12.165383 -95.000000 -29.171995
v -24.317879 -95.000000 -28.578190
v -36.444611 -95.000000 -27.589212
v -48.532738 -95.000000 -26.206114
v -60.569450 -95.000000 -24.430355
v -72.542000 -95.000000 -22.263819
vn 0.294670 0.000000 0.955599
vn 0.294670 0.000000 0.955599
vn 0.250400 0.000000 0.968143
vn 0.250400 0.000000 0.968143
vn 0.205600 0.000000 0.978636
vn 0.205600 0.000000 0.978636
vn 0.160364 0.000000 0.987058
vn 0.114789 -0.000000 0.993390
vn 0.160364 0.000000 0.987058
vn 0.114789 0.000000 0.993390
vn 0.068970 0.000000 0.997619
vn 0.068970 0.000000 0.997619
vn 0.023006 0.000000 0.999735
vn 0.023006 0.000000 0.999735
vn 0.301259 0.000000 0.953542
vn 0.301259 0.000000 0.953542
vn 0.270393 0.000000 0.962750
vn 0.270393 0.000000 0.962750
vn 0.239246 0.000000 0.970959
vn 0.207851 0.000000 0.978161
vn 0.239246 0.000000 0.970959
vn 0.207851 0.000000 0.978161
vn 0.176240 0.000000 0.984347
vn 0.144446 0.000000 0.989513
vn 0.176240 0.000000 0.984347
vn 0.144446 0.000000 0.989513
vn 0.112503 0.000000 0.993651
vn 0.112503 0.000000 0.993651
vn 0.080443 0.000000 0.996759
vn 0.080443 0.000000 0.996759
vn 0.048299 0.000000 0.998833
vn 0.048299 0.000000 0.998833
vn 0.016105 0.000000 0.999870
vn 0.016105 0.000000 0.999870
vn -1.000000 -0.000000 -0.000000
vn -1.000000 -0.000000 0.000000
vn -1.000000 -0.000000 0.000000
vn -1.000000 -0.000000 0.000000
vn -1.000000 0.000000 0.000000
vn -1.000000 0.000000 0.000000
vn -1.000000 0.000000 0.000000
vn -1.000000 0.000000 0.000000
vn -1.000000 0.000000 0.000000
vn -1.000000 -0.000000 -0.000000
vn -1.000000 0.000000 -0.000000
vn -1.000000 0.000000 -0.000000
vn 0.000000 1.000000 0.000000
vn 0.000000 1.000000 0.000000
vn 0.000000 1.000000 0.000000
vn 0.000000 1.000000 0.000000
vn 0.000000 1.000000 0.000000
vn 0.000000 1.000000 0.000000
vn 0.000000 1.000000 0.000000
vn 0.000000 1.000000 0.000000
vn 0.000000 1.000000 0.000000
vn 0.000000 1.000000 0.000000
vn 0.000000 1.000000 0.000000
vn 0.000000 1.000000 0.000000
vn 0.000000 1.000000 0.000000
vn 0.000000 1.000000 0.000000
vn 0.000000 1.000000 0.000000
vn 0.000000 1.000000 0.000000
vn 0.000000 1.000000 0.000000
vn 0.000000 1.000000 0.000000
vn 0.000000 -1.000000 0.000000
vn 0.000000 -1.000000 0.000000
vn 0.000000 -1.000000 0.000000
vn 0.000000 -1.000000 0.000000
vn 0.000000 -1.000000 0.000000
vn 0.000000 -1.000000 0.000000
vn 0.000000 -1.000000 0.000000
vn 0.000000 -1.000000 0.000000
vn 0.000000 -1.000000 0.000000
vn 0.000000 -1.000000 0.000000
vn 0.000000 -1.000000 0.000000
vn 0.000000 -1.000000 0.000000
vn 0.000000 -1.000000 0.000000
vn 0.000000 -1.000000 0.000000
vn 0.000000 -1.000000 0.000000
vn 0.000000 -1.000000 0.000000
vn 0.000000 -1.000000 0.000000
vn 0.000000 -1.000000 0.000000
vn 1.000000 0.000000 0.000000
vn 1.000000 0.000000 0.000000
vn 1.000000 0.000000 -0.000000
vn 1.000000 0.000000 -0.000000
vn 1.000000 0.000000 -0.000000
vn 1.000000 -0.000000 0.000000
vn 1.000000 -0.000000 -0.000000
vn 1.000000 0.000000 0.000000
vn 1.000000 0.000000 0.000000
vn 1.000000 -0.000000 0.000000
vn 0.000000 0.000000 -1.000000
vn 0.000000 0.000000 -1.000000
vn -0.000000 -1.000000 0.000000
vn 0.000000 -1.000000 0.000000
vn 0.000000 -1.000000 0.000000
vn 0.000000 -1.000000 0.000000
vn 0.000000 -1.000000 0.000000
vn 0.000000 -1.000000 0.000000
vn 0.000000 -1.000000 0.000000
vn 0.000000 -1.000000 0.000000
vn 0.000000 -1.000000 0.000000
vn 0.000000 -1.000000 0.000000
vn 0.000000 -1.000000 0.000000
vn 0.000000 -1.000000 0.000000
vn 0.000000 -1.000000 0.000000
vn 0.000000 -1.000000 0.000000
vn 0.000000 -1.000000 0.000000
vn 0.000000 -1.000000 0.000000
vn 0.000000 -1.000000 0.000000
vn 0.000000 -1.000000 0.000000
vn 0.000000 -1.000000 0.000000
vn -0.297663 0.000000 -0.954671
vn -0.297663 0.000000 -0.954671
vn -0.252966 0.000000 -0.967475
vn -0.252966 0.000000 -0.967475
vn -0.207722 0.000000 -0.978188
vn -0.207722 0.000000 -0.978188
vn -0.162029 0.000000 -0.986786
vn -0.115986 -0.000000 -0.993251
vn -0.162029 0.000000 -0.986786
vn -0.069692 -0.000000 -0.997569
vn -0.115986 0.000000 -0.993251
vn -0.069692 0.000000 -0.997569
vn -0.023247 0.000000 -0.999730
vn -0.023247 0.000000 -0.999730
vn 0.000000 1.000000 0.000000
vn 0.000000 1.000000 0.000000
vn 0.000000 1.000000 0.000000
vn 0.000000 1.000000 0.000000
vn 0.000000 1.000000 0.000000
vn 0.000000 1.000000 0.000000
vn 0.000000 1.000000 0.000000
vn 0.000000 1.000000 0.000000
vn 0.000000 1.000000 0.000000
vn 0.000000 1.000000 0.000000
vn 0.000000 1.000000 0.000000
vn 0.000000 1.000000 0.000000
vn 0.000000 1.000000 0.000000
vn 0.000000 1.000000 0.000000
vn 0.000000 1.000000 0.000000
vn 0.000000 1.000000 0.000000
vn 0.000000 1.000000 0.000000
vn 0.000000 1.000000 0.000000
vn 0.000000 1.000000 0.000000
vn 0.000000 1.000000 0.000000
vn 0.000000 1.000000 0.000000
vn 0.000000 0.000000 1.000000
vn -0.000000 0.000000 1.000000
vn 0.000000 -1.000000 0.000000
vn 0.000000 -1.000000 0.000000
vn -0.304314 0.000000 -0.952572
vn -0.304314 0.000000 -0.952572
vn -0.273153 0.000000 -0.961971
vn -0.273153 0.000000 -0.961971
vn -0.241703 0.000000 -0.970350
vn -0.209996 0.000000 -0.977702
vn -0.241703 0.000000 -0.970350
vn -0.178067 0.000000 -0.984018
vn -0.209996 0.000000 -0.977702
vn -0.178067 0.000000 -0.984018
vn -0.145949 0.000000 -0.989292
vn -0.113676 0.000000 -0.993518
vn -0.145949 0.000000 -0.989292
vn -0.113676 0.000000 -0.993518
vn -0.081284 0.000000 -0.996691
vn -0.048805 0.000000 -0.998808
vn -0.081284 0.000000 -0.996691
vn -0.048805 0.000000 -0.998808
vn -0.016274 0.000000 -0.999868
vn -0.016274 0.000000 -0.999868
f 1//1 2//1 3//1
f 3//2 2//2 4//2
f 4//3 5//3 6//3
f 2//4 5//4 4//4
f 6//5 7//5 8//5
f 5//6 7//6 6//6
f 8//7 9//7 10//7
f 10//8 9//8 11//8
f 7//9 9//9 8//9
f 9//10 12//10 11//10
f 11//11 13//11 14//11
f 12//12 13//12 11//12
f 14//13 15//13 16//13
f 13//14 15//14 14//14
f 1//15 3//15 17//15
f 18//16 1//16 17//16
f 19//17 17//17 20//17
f 19//18 18//18 17//18
f 21//19 20//19 22//19
f 21//20 22//20 23//20
f 21//21 19//21 20//21
f 24//22 21//22 23//22
f 25//23 23//23 26//23
f 25//24 26//24 27//24
f 25//25 24//25 23//25
f 28//26 25//26 27//26
f 29//27 27//27 30//27
f 29//28 28//28 27//28
f 31//29 30//29 32//29
f 31//30 29//30 30//30
f 33//31 32//31 34//31
f 33//32 31//32 32//32
f 35//33 34//33 36//33
f 35//34 33//34 34//34
f 37//35 38//35 16//35
f 39//36 40//36 41//36
f 41//37 40//37 38//37
f 38//38 40//38 16//38
f 37//39 15//39 42//39
f 16//40 15//40 37//40
f 15//41 43//41 42//41
f 43//42 44//42 45//42
f 45//43 44//43 46//43
f 46//44 44//44 39//44
f 39//45 44//45 40//45
f 15//46 44//46 43//46
f 13//47 44//47 15//47
f 12//48 44//48 13//48
f 9//49 44//49 12//49
f 7//50 44//50 9//50
f 5//51 44//51 7//51
f 2//52 44//52 5//52
f 1//53 44//53 2//53
f 18//54 44//54 1//54
f 19//55 44//55 18//55
f 21//56 44//56 19//56
f 24//57 44//57 21//57
f 25//58 44//58 24//58
f 47//59 44//59 25//59
f 28//60 47//60 25//60
f 29//61 47//61 28//61
f 31//62 47//62 29//62
f 33//63 47//63 31//63
f 35//64 47//64 33//64
f 40//65 14//65 48//65
f 40//66 11//66 14//66
f 40//67 10//67 11//67
f 40//68 8//68 10//68
f 40//69 6//69 8//69
f 40//70 4//70 6//70
f 40//71 49//71 4//71
f 40//72 17//72 49//72
f 40//73 20//73 17//73
f 40//74 22//74 20//74
f 40//75 23//75 22//75
f 40//76 26//76 23//76
f 40//77 50//77 26//77
f 50//78 27//78 26//78
f 50//79 30//79 27//79
f 50//80 32//80 30//80
f 50//81 34//81 32//81
f 50//82 51//82 34//82
f 52//83 53//83 36//83
f 50//84 52//84 36//84
f 54//85 52//85 50//85
f 35//86 36//86 53//86
f 55//87 35//87 53//87
f 56//88 35//88 55//88
f 47//89 56//89 57//89
f 47//90 57//90 54//90
f 47//91 54//91 50//91
f 47//92 35//92 56//92
f 44//93 47//93 40//93
f 40//94 47//94 50//94
f 55//95 43//95 45//95
f 56//96 55//96 45//96
f 43//97 58//97 42//97
f 43//98 59//98 58//98
f 43//99 60//99 59//99
f 43//100 61//100 60//100
f 43//101 62//101 61//101
f 43//102 63//102 62//102
f 43//103 64//103 63//103
f 43//104 65//104 64//104
f 43//105 66//105 65//105
f 43//106 67//106 66//106
f 43//107 55//107 68//107
f 43//108 68//108 69//108
f 43//109 69//109 70//109
f 43//110 70//110 71//110
f 43//111 71//111 72//111
f 43//112 72//112 73//112
f 43//113 73//113 67//113
f 74//114 75//114 64//114
f 64//115 75//115 63//115
f 63//116 76//116 62//116
f 75//117 76//117 63//117
f 62//118 77//118 61//118
f 76//119 77//119 62//119
f 61//120 78//120 60//120
f 60//121 78//121 59//121
f 77//122 78//122 61//122
f 59//123 79//123 58//123
f 78//124 79//124 59//124
f 79//125 80//125 58//125
f 58//126 37//126 42//126
f 80//127 37//127 58//127
f 80//128 38//128 37//128
f 79//129 38//129 80//129
f 78//130 38//130 79//130
f 77//131 38//131 78//131
f 76//132 38//132 77//132
f 75//133 38//133 76//133
f 74//134 38//134 75//134
f 81//135 38//135 74//135
f 82//136 38//136 81//136
f 83//137 38//137 82//137
f 53//138 38//138 84//138
f 84//139 38//139 85//139
f 85//140 38//140 86//140
f 86//141 38//141 87//141
f 87//142 38//142 88//142
f 88//143 38//143 89//143
f 89//144 38//144 83//144
f 53//145 52//145 41//145
f 53//146 41//146 38//146
f 54//147 39//147 41//147
f 52//148 54//148 41//148
f 39//149 54//149 46//149
f 46//150 54//150 57//150
f 46//151 57//151 45//151
f 57//152 56//152 45//152
f 81//153 74//153 64//153
f 81//154 64//154 65//154
f 82//155 65//155 66//155
f 82//156 81//156 65//156
f 83//157 66//157 67//157
f 83//158 67//158 73//158
f 83//159 82//159 66//159
f 89//160 73//160 72//160
f 89//161 83//161 73//161
f 88//162 89//162 72//162
f 87//163 72//163 71//163
f 87//164 71//164 70//164
f 87//165 88//165 72//165
f 86//166 87//166 70//166
f 85//167 70//167 69//167
f 85//168 69//168 68//168
f 85//169 86//169 70//169
f 84//170 85//170 68//170
f 53//171 68//171 55//171
f 53//172 84//172 68//172
